<svg width="16" height="19" viewBox="0 0 16 19" fill="none" xmlns="http://www.w3.org/2000/svg">
<path d="M8 10C10.2091 10 12 7.98528 12 5.5C12 3.01472 10.2091 1 8 1C5.79086 1 4 3.01472 4 5.5C4 7.98528 5.79086 10 8 10Z" stroke="url(#paint0_linear)" stroke-width="2"/>
<path fill-rule="evenodd" clip-rule="evenodd" d="M2.00003 17C1.16798 16.4453 1.16851 16.4445 1.16851 16.4445L1.16908 16.4437L1.17036 16.4417L1.17351 16.4371L1.18211 16.4245C1.18886 16.4147 1.19766 16.402 1.20851 16.3868C1.23021 16.3563 1.26015 16.3152 1.29835 16.2651C1.37468 16.1649 1.48438 16.028 1.62762 15.8669C1.91341 15.5454 2.33695 15.1223 2.90003 14.7C4.0292 13.8531 5.73453 13 8.00003 13C10.2655 13 11.9709 13.8531 13.1 14.7C13.6631 15.1223 14.0867 15.5454 14.3724 15.8669C14.5157 16.028 14.6254 16.1649 14.7017 16.2651C14.7399 16.3152 14.7699 16.3563 14.7915 16.3868C14.8024 16.402 14.8112 16.4147 14.818 16.4245L14.8266 16.4371L14.8297 16.4417L14.8316 16.4445C14.8316 16.4445 14.8321 16.4453 14 17L14.8316 16.4445L15.1094 16.8613C15.2626 17.0911 15.2005 17.4015 14.9708 17.5547L14.1387 18.1094C13.9089 18.2626 13.5985 18.2005 13.4453 17.9707L13.1706 17.5586L13.1616 17.5458C13.1521 17.5324 13.1352 17.509 13.1109 17.4771C13.0622 17.4133 12.9844 17.3157 12.8776 17.1956C12.6634 16.9546 12.3369 16.6277 11.9 16.3C11.0292 15.6469 9.73453 15 8.00003 15C6.26553 15 4.97086 15.6469 4.10003 16.3C3.66312 16.6277 3.33665 16.9546 3.12244 17.1956C3.01568 17.3157 2.93788 17.4133 2.88921 17.4771C2.86491 17.509 2.84798 17.5324 2.83842 17.5458L2.82984 17.5581L2.55473 17.9707C2.40156 18.2005 2.09112 18.2626 1.86136 18.1094L1.02931 17.5547C0.799543 17.4015 0.737456 17.0911 0.890633 16.8613L1.16851 16.4445L2.00003 17Z" fill="#3E445B"/>
<defs>
<linearGradient id="paint0_linear" x1="8" y1="1" x2="8" y2="10" gradientUnits="userSpaceOnUse">
<stop stop-color="#FFCD9C"/>
<stop offset="1" stop-color="#F8A303"/>
</linearGradient>
</defs>
</svg>
