<svg width="14" height="14" viewBox="0 0 14 14" fill="none" xmlns="http://www.w3.org/2000/svg">
<path d="M1 7.66667C1 6.40959 1 5.78105 1.39052 5.39052C1.78105 5 2.40959 5 3.66667 5H6.33333C7.59041 5 8.21895 5 8.60948 5.39052C9 5.78105 9 6.40959 9 7.66667V10.3333C9 11.5904 9 12.219 8.60948 12.6095C8.21895 13 7.59041 13 6.33333 13H3.66667C2.40959 13 1.78105 13 1.39052 12.6095C1 12.219 1 11.5904 1 10.3333V7.66667Z" stroke="#3E445B" stroke-width="2"/>
<path d="M5 3V3C5 2.37874 5 2.06812 5.10149 1.82309C5.23682 1.49638 5.49638 1.23682 5.82309 1.10149C6.06812 1 6.37874 1 7 1H10.3333C11.5904 1 12.219 1 12.6095 1.39052C13 1.78105 13 2.40959 13 3.66667V7C13 7.62126 13 7.93188 12.8985 8.17691C12.7632 8.50362 12.5036 8.76318 12.1769 8.89851C11.9319 9 11.6213 9 11 9V9" stroke="#3E445B" stroke-width="2"/>
</svg>
