<svg width="20" height="19" viewBox="0 0 20 19" fill="none" xmlns="http://www.w3.org/2000/svg">
<path fill-rule="evenodd" clip-rule="evenodd" d="M5.65336 8.56066C5.4581 8.3654 5.4581 8.04882 5.65336 7.85355L6.36046 7.14645C6.55573 6.95118 6.87231 6.95118 7.06757 7.14645L9.00691 9.08579L9.00691 0.5C9.00691 0.223857 9.23077 -1.71828e-07 9.50691 -1.83898e-07L10.5069 -2.2761e-07C10.7831 -2.3968e-07 11.0069 0.223857 11.0069 0.5L11.0069 9.08579L12.9463 7.14645C13.1415 6.95118 13.4581 6.95118 13.6534 7.14645L14.3605 7.85355C14.5557 8.04881 14.5557 8.3654 14.3605 8.56066L10.0069 12.9142L5.65336 8.56066Z" fill="#27AE60"/>
<path fill-rule="evenodd" clip-rule="evenodd" d="M1.5 9.00015C1.77614 9.00015 1.99838 9.22462 2.01538 9.50024C2.27352 13.6856 5.74968 17.0002 10 17.0002C14.2503 17.0002 17.7265 13.6856 17.9846 9.50024C18.0016 9.22462 18.2239 9.00015 18.5 9.00015L19.5 9.00015C19.7761 9.00015 20.0013 9.22427 19.9877 9.50008C19.7272 14.7907 15.3552 19.0002 10 19.0002C4.64479 19.0002 0.272761 14.7907 0.0122792 9.50008C-0.00130023 9.22428 0.223858 9.00015 0.5 9.00015L1.5 9.00015Z" fill="#3E445B"/>
</svg>
