<svg width="21" height="21" viewBox="0 0 21 21" fill="none" xmlns="http://www.w3.org/2000/svg">
<path d="M13.7929 13C17.1066 13 19.7929 10.3137 19.7929 7C19.7929 3.68629 17.1066 1 13.7929 1C10.4792 1 7.79289 3.68629 7.79289 7C7.79289 8.04144 8.05823 9.02092 8.52499 9.8745L1.14645 17.253C0.951183 17.4483 0.951183 17.7649 1.14645 17.9602L2.06066 18.8744C2.15443 18.9681 2.28161 19.0208 2.41421 19.0208H4.82843C4.96104 19.0208 5.08821 18.9681 5.18198 18.8744L11.5071 12.5492C12.2116 12.8397 12.9835 13 13.7929 13Z" stroke="#3E445B" stroke-width="2"/>
<path d="M16.5 5.5C16.5 6.32843 15.8284 7 15 7C14.1716 7 13.5 6.32843 13.5 5.5C13.5 4.67157 14.1716 4 15 4C15.8284 4 16.5 4.67157 16.5 5.5Z" fill="#3E445B"/>
</svg>
