<svg width="20" height="19" viewBox="0 0 20 19" fill="none" xmlns="http://www.w3.org/2000/svg">
<path fill-rule="evenodd" clip-rule="evenodd" d="M5.65336 4.35355C5.4581 4.54882 5.4581 4.8654 5.65336 5.06066L6.36046 5.76777C6.55573 5.96303 6.87231 5.96303 7.06757 5.76777L9.00691 3.82843L9.00691 12.4142C9.00691 12.6904 9.23077 12.9142 9.50691 12.9142L10.5069 12.9142C10.7831 12.9142 11.0069 12.6904 11.0069 12.4142L11.0069 3.82843L12.9463 5.76777C13.1415 5.96303 13.4581 5.96303 13.6534 5.76777L14.3605 5.06066C14.5557 4.8654 14.5557 4.54882 14.3605 4.35355L10.0069 2.05754e-07L5.65336 4.35355Z" fill="#3E445B"/>
<path fill-rule="evenodd" clip-rule="evenodd" d="M1.5 9C1.77614 9 1.99838 9.22447 2.01538 9.50009C2.27352 13.6854 5.74968 17 10 17C14.2503 17 17.7265 13.6854 17.9846 9.50009C18.0016 9.22447 18.2239 9 18.5 9L19.5 9C19.7761 9 20.0013 9.22412 19.9877 9.49993C19.7272 14.7905 15.3552 19 10 19C4.64479 19 0.272761 14.7905 0.0122792 9.49993C-0.00130023 9.22412 0.223858 9 0.5 9L1.5 9Z" fill="#3E445B"/>
</svg>
